<svg width="321" height="284" version="1.1" xmlns="http://www.w3.org/2000/svg" desc="Created with imagetracer.js version 1.2.6" ><path fill="rgb(2,18,38)" stroke="rgb(2,18,38)" stroke-width="1" opacity="0.29411764705882354" d="M 185.5 0 L 214.5 2 L 243.5 11 Q 272 24 291 46.5 Q 305 62.5 313 84.5 L 320 112.5 L 321 136.5 L 320 137.5 L 320 148.5 L 316 167.5 L 307 191.5 Q 295 215.5 275.5 232 Q 262.3 243.3 245.5 251 L 220.5 259 L 208.5 260 L 206.5 259 L 180.5 274 L 162.5 280 L 141.5 284 L 118.5 284 L 96.5 280 L 74.5 272 Q 51.1 260.4 34 242.5 L 16 217.5 L 9 202.5 L 1 173.5 Q 2.8 167.3 0 165.5 L 0 141.5 L 4 120.5 L 14 94.5 Q 25.2 74.2 41.5 59 Q 63.1 39.1 95.5 30 L 117.5 26 L 145.5 26 L 165.5 30 L 191.5 40 Q 211.8 51.2 227 67.5 L 240.5 86 L 241 84.5 Q 228.9 55.1 205.5 37 L 191.5 27 L 173.5 18 L 161.5 15 L 158 12.5 L 159.5 10 Q 197.3 20.3 220 45.5 Q 233.9 60.1 243 79.5 L 250 98.5 L 253 111.5 L 253 119 Q 250.3 120.1 251 117.5 Q 240.3 83.3 216.5 62 Q 199.6 46.4 176.5 37 L 149.5 30 L 121.5 29 L 120.5 30 L 112.5 30 L 101.5 32 L 79.5 39 Q 54.4 49.9 37 68.5 Q 20.7 85.7 11 109.5 L 4 136.5 L 3 160.5 L 4 161.5 L 4 170.5 L 6 181.5 L 13 203.5 L 28 229.5 L 41 245 L 63.5 262 L 85.5 273 L 113.5 280 L 134.5 281 L 135.5 280 L 152.5 279 L 164.5 276 Q 186.8 269.8 202.5 257 L 222.5 255 L 243.5 248 Q 268.9 236.4 286 216.5 Q 304.5 196 313 165.5 L 317 142.5 L 317 117.5 L 313 95.5 L 303 70.5 Q 291.7 49.8 274.5 35 Q 256.5 19 231.5 10 L 216.5 6 L 203.5 5 L 202.5 4 L 179.5 4 L 178.5 5 L 166.5 6 L 158.5 9 Q 155.8 7.8 158 6.5 Q 157.3 4.3 159.5 5 L 168.5 2 L 184.5 1 L 185.5 0 Z " /><path fill="rgb(2,18,38)" stroke="rgb(2,18,38)" stroke-width="1" opacity="0.29411764705882354" d="M 121.5 71 L 143.5 72 L 162.5 78 Q 181.2 86.8 193 102.5 Q 203.1 114.9 208 132.5 L 210 142.5 L 210 167.5 Q 203.7 201.2 181.5 219 Q 168.1 230.6 148.5 236 L 137.5 237 L 136.5 238 L 123.5 238 L 107.5 235 L 92.5 229 Q 76.8 220.2 66 206.5 Q 56.2 193.7 51 176.5 L 49 167.5 L 48 150.5 L 49 149.5 L 50 136.5 L 56 118.5 Q 63.4 102.9 75.5 92 Q 85.3 82.8 98.5 77 L 121.5 71 Z M 129 74 L 128 75 L 118 75 L 106 78 Q 93 82 84 90 Q 71 99 63 113 L 57 125 L 52 145 L 52 165 L 55 179 Q 60 194 69 205 Q 86 227 119 234 L 142 234 L 151 232 Q 168 227 180 216 L 195 199 L 202 185 L 207 165 L 207 146 L 204 131 Q 199 116 191 106 Q 181 92 167 84 L 151 77 L 129 74 Z " /><path fill="rgb(241,245,248)" stroke="rgb(241,245,248)" stroke-width="1" opacity="0.996078431372549" d="M 143.5 30 L 146 30.5 L 143.5 31 L 143.5 30 Z " /><path fill="rgb(241,245,248)" stroke="rgb(241,245,248)" stroke-width="1" opacity="0.996078431372549" d="M 195.5 47 L 194.5 49 L 195.5 47 Z " /><path fill="rgb(241,245,248)" stroke="rgb(241,245,248)" stroke-width="1" opacity="0.996078431372549" d="M 116.5 49 L 117 51.5 L 116 51.5 L 116.5 49 Z " /><path fill="rgb(241,245,248)" stroke="rgb(241,245,248)" stroke-width="1" opacity="0.996078431372549" d="M 139.5 59 L 138.5 61 L 139.5 59 Z " /><path fill="rgb(241,245,248)" stroke="rgb(241,245,248)" stroke-width="1" opacity="0.996078431372549" d="M 213.5 60 L 214.5 62 L 213.5 60 Z " /><path fill="rgb(241,245,248)" stroke="rgb(241,245,248)" stroke-width="1" opacity="0.996078431372549" d="M 45.5 61 L 44.5 63 L 45.5 61 Z " /><path fill="rgb(241,245,248)" stroke="rgb(241,245,248)" stroke-width="1" opacity="0.996078431372549" d="M 126.5 70 L 135 70.5 L 126.5 71 L 126.5 70 Z " /><path fill="rgb(241,245,248)" stroke="rgb(241,245,248)" stroke-width="1" opacity="0.996078431372549" d="M 223.5 70 L 225.5 73 L 223.5 70 Z " /><path fill="rgb(241,245,248)" stroke="rgb(241,245,248)" stroke-width="1" opacity="0.996078431372549" d="M 35.5 71 L 34.5 73 L 35.5 71 Z " /><path fill="rgb(241,245,248)" stroke="rgb(241,245,248)" stroke-width="1" opacity="0.996078431372549" d="M 74.5 92 L 70.5 97 L 74.5 92 Z " /><path fill="rgb(241,245,248)" stroke="rgb(241,245,248)" stroke-width="1" opacity="0.996078431372549" d="M 192.5 101 L 193.5 103 L 192.5 101 Z " /><path fill="rgb(241,245,248)" stroke="rgb(241,245,248)" stroke-width="1" opacity="0.996078431372549" d="M 254.5 141 L 255 143.5 L 254 143.5 L 254.5 141 Z " /><path fill="rgb(241,245,248)" stroke="rgb(241,245,248)" stroke-width="1" opacity="0.996078431372549" d="M 210.5 164 L 211 166.5 L 210 166.5 L 210.5 164 Z " /><path fill="rgb(241,245,248)" stroke="rgb(241,245,248)" stroke-width="1" opacity="0.996078431372549" d="M 254.5 164 L 255 166.5 L 254 166.5 L 254.5 164 Z " /><path fill="rgb(241,245,248)" stroke="rgb(241,245,248)" stroke-width="1" opacity="0.996078431372549" d="M 191.5 209 L 189.5 212 L 191.5 209 Z " /><path fill="rgb(241,245,248)" stroke="rgb(241,245,248)" stroke-width="1" opacity="0.996078431372549" d="M 183.5 217 L 182.5 219 L 183.5 217 Z " /><path fill="rgb(241,245,248)" stroke="rgb(241,245,248)" stroke-width="1" opacity="0.996078431372549" d="M 228.5 231 L 227.5 233 L 228.5 231 Z " /><path fill="rgb(241,245,248)" stroke="rgb(241,245,248)" stroke-width="1" opacity="0.996078431372549" d="M 35.5 237 L 40.5 243 L 35.5 237 Z " /><path fill="rgb(241,245,248)" stroke="rgb(241,245,248)" stroke-width="1" opacity="0.996078431372549" d="M 223.5 237 L 221.5 240 L 223.5 237 Z " /><path fill="rgb(241,245,248)" stroke="rgb(241,245,248)" stroke-width="1" opacity="0.996078431372549" d="M 44.5 246 L 45.5 248 L 44.5 246 Z " /><path fill="rgb(241,245,248)" stroke="rgb(241,245,248)" stroke-width="1" opacity="0.996078431372549" d="M 213.5 247 L 210.5 251 L 213.5 247 Z " /><path fill="rgb(241,245,248)" stroke="rgb(241,245,248)" stroke-width="1" opacity="0.996078431372549" d="M 206.5 253 L 205.5 255 L 206.5 253 Z " /><path fill="rgb(241,245,248)" stroke="rgb(241,245,248)" stroke-width="1" opacity="0.996078431372549" d="M 117.5 279 L 120 279.5 L 117.5 280 L 117.5 279 Z " /><path fill="rgb(24,69,114)" stroke="rgb(24,69,114)" stroke-width="1" opacity="0.8862745098039215" d="M 179.5 4 L 185 4.5 L 179.5 5 L 179.5 4 Z " /><path fill="rgb(24,69,114)" stroke="rgb(24,69,114)" stroke-width="1" opacity="0.8862745098039215" d="M 197.5 4 L 203 4.5 L 197.5 5 L 197.5 4 Z " /><path fill="rgb(24,69,114)" stroke="rgb(24,69,114)" stroke-width="1" opacity="0.8862745098039215" d="M 171.5 5 L 174 5.5 L 171.5 6 L 171.5 5 Z " /><path fill="rgb(24,69,114)" stroke="rgb(24,69,114)" stroke-width="1" opacity="0.8862745098039215" d="M 208.5 5 L 211 5.5 L 208.5 6 L 208.5 5 Z " /><path fill="rgb(24,69,114)" stroke="rgb(24,69,114)" stroke-width="1" opacity="0.8862745098039215" d="M 258.5 23 L 259.5 25 L 258.5 23 Z " /><path fill="rgb(24,69,114)" stroke="rgb(24,69,114)" stroke-width="1" opacity="0.8862745098039215" d="M 261.5 25 L 262.5 27 L 261.5 25 Z " /><path fill="rgb(24,69,114)" stroke="rgb(24,69,114)" stroke-width="1" opacity="0.8862745098039215" d="M 264.5 27 L 265.5 29 L 264.5 27 Z " /><path fill="rgb(24,69,114)" stroke="rgb(24,69,114)" stroke-width="1" opacity="0.8862745098039215" d="M 121.5 29 L 127 29.5 L 121.5 30 L 121.5 29 Z " /><path fill="rgb(24,69,114)" stroke="rgb(24,69,114)" stroke-width="1" opacity="0.8862745098039215" d="M 135.5 29 L 141 29.5 L 135.5 30 L 135.5 29 Z " /><path fill="rgb(24,69,114)" stroke="rgb(24,69,114)" stroke-width="1" opacity="0.8862745098039215" d="M 268.5 30 L 270.5 33 L 268.5 30 Z " /><path fill="rgb(24,69,114)" stroke="rgb(24,69,114)" stroke-width="1" opacity="0.8862745098039215" d="M 204.5 31 L 206.5 34 L 204.5 31 Z " /><path fill="rgb(24,69,114)" stroke="rgb(24,69,114)" stroke-width="1" opacity="0.8862745098039215" d="M 209.5 35 L 213.5 40 L 209.5 35 Z " /><path fill="rgb(24,69,114)" stroke="rgb(24,69,114)" stroke-width="1" opacity="0.8862745098039215" d="M 274.5 35 L 286.5 48 L 274.5 35 Z " /><path fill="rgb(24,69,114)" stroke="rgb(24,69,114)" stroke-width="1" opacity="0.8862745098039215" d="M 220.5 46 L 224.5 51 L 220.5 46 Z " /><path fill="rgb(24,69,114)" stroke="rgb(24,69,114)" stroke-width="1" opacity="0.8862745098039215" d="M 290.5 52 L 291.5 54 L 290.5 52 Z " /><path fill="rgb(24,69,114)" stroke="rgb(24,69,114)" stroke-width="1" opacity="0.8862745098039215" d="M 227.5 54 L 228.5 56 L 227.5 54 Z " /><path fill="rgb(24,69,114)" stroke="rgb(24,69,114)" stroke-width="1" opacity="0.8862745098039215" d="M 209.5 56 L 210.5 58 L 209.5 56 Z " /><path fill="rgb(24,69,114)" stroke="rgb(24,69,114)" stroke-width="1" opacity="0.8862745098039215" d="M 49.5 57 L 48.5 59 L 49.5 57 Z " /><path fill="rgb(24,69,114)" stroke="rgb(24,69,114)" stroke-width="1" opacity="0.8862745098039215" d="M 230.5 58 L 231.5 60 L 230.5 58 Z " /><path fill="rgb(24,69,114)" stroke="rgb(24,69,114)" stroke-width="1" opacity="0.8862745098039215" d="M 295.5 59 L 296.5 61 L 295.5 59 Z " /><path fill="rgb(24,69,114)" stroke="rgb(24,69,114)" stroke-width="1" opacity="0.8862745098039215" d="M 232.5 61 L 233.5 63 L 232.5 61 Z " /><path fill="rgb(24,69,114)" stroke="rgb(24,69,114)" stroke-width="1" opacity="0.8862745098039215" d="M 216.5 62 L 222.5 69 L 216.5 62 Z " /><path fill="rgb(24,69,114)" stroke="rgb(24,69,114)" stroke-width="1" opacity="0.8862745098039215" d="M 42.5 63 L 37.5 69 L 42.5 63 Z " /><path fill="rgb(24,69,114)" stroke="rgb(24,69,114)" stroke-width="1" opacity="0.8862745098039215" d="M 137.5 71 L 140 71.5 L 137.5 72 L 137.5 71 Z " /><path fill="rgb(24,69,114)" stroke="rgb(24,69,114)" stroke-width="1" opacity="0.8862745098039215" d="M 31.5 75 L 30.5 77 L 31.5 75 Z " /><path fill="rgb(24,69,114)" stroke="rgb(24,69,114)" stroke-width="1" opacity="0.8862745098039215" d="M 233.5 82 L 234.5 84 L 233.5 82 Z " /><path fill="rgb(24,69,114)" stroke="rgb(24,69,114)" stroke-width="1" opacity="0.8862745098039215" d="M 78.5 89 L 76.5 92 L 78.5 89 Z " /><path fill="rgb(24,69,114)" stroke="rgb(24,69,114)" stroke-width="1" opacity="0.8862745098039215" d="M 181.5 90 L 190.5 100 L 181.5 90 Z " /><path fill="rgb(24,69,114)" stroke="rgb(24,69,114)" stroke-width="1" opacity="0.8862745098039215" d="M 69.5 98 L 67.5 101 L 69.5 98 Z " /><path fill="rgb(24,69,114)" stroke="rgb(24,69,114)" stroke-width="1" opacity="0.8862745098039215" d="M 252.5 108 L 253 110.5 L 252 110.5 L 252.5 108 Z " /><path fill="rgb(24,69,114)" stroke="rgb(24,69,114)" stroke-width="1" opacity="0.8862745098039215" d="M 315.5 109 L 316 111.5 L 315 111.5 L 315.5 109 Z " /><path fill="rgb(24,69,114)" stroke="rgb(24,69,114)" stroke-width="1" opacity="0.8862745098039215" d="M 253.5 114 L 256 141.5 L 255 141.5 L 254 131.5 L 251 119 L 253 119 L 253.5 114 Z " /><path fill="rgb(24,69,114)" stroke="rgb(24,69,114)" stroke-width="1" opacity="0.8862745098039215" d="M 316.5 117 L 317 122.5 L 316 122.5 L 316.5 117 Z " /><path fill="rgb(24,69,114)" stroke="rgb(24,69,114)" stroke-width="1" opacity="0.8862745098039215" d="M 316.5 137 L 317 142.5 L 316 142.5 L 316.5 137 Z " /><path fill="rgb(24,69,114)" stroke="rgb(24,69,114)" stroke-width="1" opacity="0.8862745098039215" d="M 3.5 146 L 4 160.5 L 3 160.5 L 3.5 146 Z " /><path fill="rgb(24,69,114)" stroke="rgb(24,69,114)" stroke-width="1" opacity="0.8862745098039215" d="M 48.5 146 L 49 149.5 L 48 149.5 L 48.5 146 Z " /><path fill="rgb(24,69,114)" stroke="rgb(24,69,114)" stroke-width="1" opacity="0.8862745098039215" d="M 210.5 148 L 211 160.5 L 210 160.5 L 210.5 148 Z " /><path fill="rgb(24,69,114)" stroke="rgb(24,69,114)" stroke-width="1" opacity="0.8862745098039215" d="M 48.5 158 L 49 161.5 L 48 161.5 L 48.5 158 Z " /><path fill="rgb(24,69,114)" stroke="rgb(24,69,114)" stroke-width="1" opacity="0.8862745098039215" d="M 62.5 201 L 63.5 203 L 62.5 201 Z " /><path fill="rgb(24,69,114)" stroke="rgb(24,69,114)" stroke-width="1" opacity="0.8862745098039215" d="M 192.5 207 L 191.5 209 L 192.5 207 Z " /><path fill="rgb(24,69,114)" stroke="rgb(24,69,114)" stroke-width="1" opacity="0.8862745098039215" d="M 292.5 207 L 291.5 209 L 292.5 207 Z " /><path fill="rgb(24,69,114)" stroke="rgb(24,69,114)" stroke-width="1" opacity="0.8862745098039215" d="M 69.5 210 L 77.5 219 L 69.5 210 Z " /><path fill="rgb(24,69,114)" stroke="rgb(24,69,114)" stroke-width="1" opacity="0.8862745098039215" d="M 289.5 211 L 288.5 213 L 289.5 211 Z " /><path fill="rgb(24,69,114)" stroke="rgb(24,69,114)" stroke-width="1" opacity="0.8862745098039215" d="M 285.5 216 L 274.5 228 L 285.5 216 Z " /><path fill="rgb(24,69,114)" stroke="rgb(24,69,114)" stroke-width="1" opacity="0.8862745098039215" d="M 180.5 219 L 179.5 221 L 180.5 219 Z " /><path fill="rgb(24,69,114)" stroke="rgb(24,69,114)" stroke-width="1" opacity="0.8862745098039215" d="M 176.5 222 L 175.5 224 L 176.5 222 Z " /><path fill="rgb(24,69,114)" stroke="rgb(24,69,114)" stroke-width="1" opacity="0.8862745098039215" d="M 28.5 229 L 29.5 231 L 28.5 229 Z " /><path fill="rgb(24,69,114)" stroke="rgb(24,69,114)" stroke-width="1" opacity="0.8862745098039215" d="M 270.5 230 L 268.5 233 L 270.5 230 Z " /><path fill="rgb(24,69,114)" stroke="rgb(24,69,114)" stroke-width="1" opacity="0.8862745098039215" d="M 32.5 234 L 33.5 236 L 32.5 234 Z " /><path fill="rgb(24,69,114)" stroke="rgb(24,69,114)" stroke-width="1" opacity="0.8862745098039215" d="M 265.5 234 L 264.5 236 L 265.5 234 Z " /><path fill="rgb(24,69,114)" stroke="rgb(24,69,114)" stroke-width="1" opacity="0.8862745098039215" d="M 262.5 236 L 261.5 238 L 262.5 236 Z " /><path fill="rgb(24,69,114)" stroke="rgb(24,69,114)" stroke-width="1" opacity="0.8862745098039215" d="M 120.5 237 L 123 237.5 L 120.5 238 L 120.5 237 Z " /><path fill="rgb(24,69,114)" stroke="rgb(24,69,114)" stroke-width="1" opacity="0.8862745098039215" d="M 48.5 250 L 49.5 252 L 48.5 250 Z " /><path fill="rgb(24,69,114)" stroke="rgb(24,69,114)" stroke-width="1" opacity="0.8862745098039215" d="M 53.5 254 L 54.5 256 L 53.5 254 Z " /><path fill="rgb(24,69,114)" stroke="rgb(24,69,114)" stroke-width="1" opacity="0.8862745098039215" d="M 215.5 255 L 218 255.5 L 215.5 256 L 215.5 255 Z " /><path fill="rgb(24,69,114)" stroke="rgb(24,69,114)" stroke-width="1" opacity="0.8862745098039215" d="M 203.5 256 L 210 256.5 L 203.5 257 L 203.5 256 Z " /><path fill="rgb(24,69,114)" stroke="rgb(24,69,114)" stroke-width="1" opacity="0.8862745098039215" d="M 125.5 280 L 135 280.5 L 125.5 281 L 125.5 280 Z " /><path fill="rgb(254,254,254)" stroke="rgb(254,254,254)" stroke-width="1" opacity="1" d="M 120.5 30 L 139.5 30 L 140.5 31 L 142.5 30 L 143.5 31 L 156.5 32 L 179.5 39 L 201.5 51 L 220 66 L 236 86.5 L 247 108.5 L 254 135.5 L 255 162.5 L 254 163.5 L 254 171.5 L 251 186.5 L 242 210.5 L 233 225.5 L 219 243 Q 216.3 241.9 217 244.5 Q 198.8 263.3 171.5 273 L 147.5 279 L 122.5 280 L 121.5 279 L 111.5 279 L 97.5 276 Q 80.4 271.1 66.5 263 Q 47.1 251.4 33 234.5 Q 18 217.5 10 193.5 L 5 171.5 L 4 146.5 L 5 145.5 L 6 129.5 L 13 106.5 Q 23.2 82.7 40.5 66 L 43 64.5 Q 42.3 62.3 44.5 63 Q 59.8 47.8 81.5 39 L 100.5 33 L 111.5 31 L 119.5 31 L 120.5 30 Z M 128 31 L 128 32 L 136 32 L 128 31 Z M 114 32 L 114 33 L 117 33 L 114 32 Z M 143 32 L 143 33 L 150 33 L 143 32 Z M 108 33 L 108 34 L 112 34 L 108 33 Z M 102 34 L 102 35 L 106 35 L 102 34 Z M 128 34 L 127 36 L 127 37 L 129 37 L 128 34 Z M 158 34 L 158 35 L 161 35 L 158 34 Z M 98 35 L 98 36 L 100 36 L 98 35 Z M 131 35 L 130 37 L 133 37 L 131 35 Z M 88 38 L 88 39 L 90 39 L 88 38 Z M 127 38 L 121 41 L 116 50 L 117 55 L 117 56 Q 119 55 118 58 Q 122 62 129 64 L 138 62 L 143 55 Q 144 48 142 45 L 134 38 L 127 38 Z M 172 38 L 173 40 Q 174 37 172 38 Z M 211 59 Q 209 62 212 61 L 211 59 Z M 123 68 L 120 70 L 123 70 L 123 68 Z M 125 68 L 125 69 L 135 69 L 125 68 Z M 117 69 L 117 70 L 119 70 L 117 69 Z M 139 69 L 139 70 L 141 70 L 139 69 Z M 143 69 L 143 70 L 145 70 L 143 69 Z M 124 70 L 102 75 Q 87 81 77 90 Q 61 103 53 124 L 48 143 L 48 165 L 47 164 L 46 164 L 47 168 L 48 166 L 49 168 L 49 172 L 53 186 L 59 198 L 74 216 Q 76 215 75 218 Q 86 228 102 234 L 118 238 L 127 238 L 128 239 L 143 238 L 153 235 L 155 236 L 158 236 L 155 235 Q 170 230 181 221 Q 192 211 200 199 Q 208 185 211 168 L 211 144 L 209 133 Q 202 111 189 97 Q 176 83 158 75 L 143 71 L 124 70 Z M 102 73 L 102 74 L 104 74 L 102 73 Z M 157 73 L 157 74 L 159 74 L 157 73 Z M 242 102 L 243 104 Q 244 101 242 102 Z M 245 106 L 244 109 L 245 109 L 245 106 Z M 248 114 L 247 118 L 248 118 L 248 114 Z M 250 122 L 249 125 L 250 125 L 250 122 Z M 9 125 L 8 128 L 9 128 L 9 125 Z M 209 126 L 209 132 L 210 132 L 209 126 Z M 252 131 L 251 134 L 252 134 L 252 131 Z M 8 132 L 7 135 L 8 135 L 8 132 Z M 7 137 L 6 140 L 7 140 L 7 137 Z M 212 138 L 211 141 L 212 141 L 212 138 Z M 213 142 L 212 149 L 213 149 L 213 142 Z M 47 146 L 46 149 L 47 149 L 47 146 Z M 6 148 L 5 151 L 6 151 L 6 148 Z M 47 155 L 45 158 L 47 159 L 47 155 Z M 213 159 L 212 168 L 213 168 L 213 159 Z M 7 164 L 6 169 L 7 169 L 7 164 Z M 253 166 L 252 169 L 253 169 L 253 166 Z M 8 172 L 7 176 L 8 176 L 8 172 Z M 49 173 L 48 176 L 49 176 L 49 173 Z M 9 178 L 8 182 L 9 182 L 9 178 Z M 210 179 L 208 183 L 210 182 L 210 179 Z M 10 182 L 9 185 L 10 185 L 10 182 Z M 250 182 L 249 185 L 250 185 L 250 182 Z M 13 193 L 12 196 L 13 196 L 13 193 Z M 87 227 L 85 229 L 87 229 L 87 227 Z M 224 234 L 222 237 L 224 236 L 224 234 Z M 109 237 L 109 238 L 111 238 L 109 237 Z M 112 238 L 112 239 L 115 239 L 112 238 Z M 145 238 L 145 239 L 147 239 L 145 238 Z M 117 239 Q 116 241 119 240 L 120 241 Q 121 237 117 239 Z M 44 243 L 45 245 Q 46 242 44 243 Z M 176 268 L 175 270 L 177 269 L 176 268 Z M 166 272 L 166 273 L 168 273 L 166 272 Z M 99 274 L 99 275 L 101 275 L 99 274 Z M 103 275 L 103 276 L 105 276 L 103 275 Z M 154 275 L 154 276 L 157 276 L 154 275 Z M 109 276 L 109 277 L 111 277 L 109 276 Z M 149 276 L 149 277 L 152 277 L 149 276 Z M 136 277 L 136 278 L 138 278 L 136 277 Z M 141 277 L 141 278 L 144 278 L 141 277 Z " /><path fill="rgb(9,150,237)" stroke="rgb(9,150,237)" stroke-width="1" opacity="0.9921568627450981" d="M 177.5 5 L 205.5 5 L 206.5 6 L 217.5 7 L 237.5 13 Q 267.7 25.3 287 48.5 Q 303.6 67.4 312 94.5 L 316 115.5 L 316 145.5 L 311 169.5 L 300 195.5 Q 289.4 214.4 273.5 228 Q 259.9 240.4 241.5 248 L 223.5 254 L 206.5 256 L 206.5 255 L 223.5 253 L 241.5 247 Q 266.8 235.8 284 216.5 Q 301.2 197.2 310 169.5 L 315 145.5 L 315 115.5 L 310 91.5 L 300 68.5 Q 290 51 275.5 38 Q 255.6 18.9 225.5 10 L 204.5 6 L 177.5 6 L 158.5 10 L 158.5 9 L 177.5 5 Z " /><path fill="rgb(9,150,237)" stroke="rgb(9,150,237)" stroke-width="1" opacity="0.9921568627450981" d="M 163.5 10 L 169.5 11 L 191.5 21 Q 209.4 31.6 223 46.5 Q 237.8 62.7 247 84.5 L 254 107.5 L 257 133.5 L 255 132.5 L 254 112.5 L 245 82.5 Q 234.8 58.8 217.5 42 L 214.5 40 L 207.5 33 L 191.5 22 Q 179.6 14.4 163.5 11 L 163.5 10 Z " /><path fill="rgb(9,150,237)" stroke="rgb(9,150,237)" stroke-width="1" opacity="0.9921568627450981" d="M 256.5 135 L 257 141.5 L 256 141.5 L 256.5 135 Z " /><path fill="rgb(0,0,0)" stroke="rgb(0,0,0)" stroke-width="1" opacity="0" d="M 0 0 L 185 0.5 L 168.5 2 L 158 5 L 159 7.5 L 157.5 10 L 159 10.5 L 158 12.5 L 161.5 15 L 173.5 18 L 191.5 27 Q 209.7 38.3 223 54.5 Q 235 68.5 242 87.5 L 241 87.5 Q 231.4 70.6 217.5 58 L 191.5 40 L 165.5 30 L 145.5 26 L 117.5 26 L 95.5 30 L 75.5 37 Q 50.5 48.5 33 67.5 Q 20.7 81.2 12 98.5 L 4 120.5 L 0.5 141 L 0 0 Z " /><path fill="rgb(0,0,0)" stroke="rgb(0,0,0)" stroke-width="1" opacity="0" d="M 196.5 0 L 321 0 L 321 122.5 L 320 122.5 L 320 112.5 L 318 101.5 L 308 72.5 Q 295.6 47.9 275.5 31 Q 259.7 17.3 238.5 9 L 219.5 3 L 208.5 2 L 207.5 1 L 196.5 1 L 196.5 0 Z " /><path fill="rgb(0,0,0)" stroke="rgb(0,0,0)" stroke-width="1" opacity="0" d="M 128.5 74 L 150.5 77 L 166.5 84 Q 181.1 92.5 191 105.5 Q 199.2 116.3 204 130.5 L 207 145.5 L 207 164.5 L 202 184.5 L 195 198.5 L 179.5 216 Q 167.9 226.9 150.5 232 L 141.5 234 L 118.5 234 Q 85.5 227.5 69 204.5 Q 60 193.5 55 178.5 L 52 164.5 L 52 144.5 L 57 124.5 L 63 112.5 Q 71.5 99.5 83.5 90 Q 92.8 82.3 105.5 78 L 117.5 75 L 127.5 75 L 128.5 74 Z " /><path fill="rgb(0,0,0)" stroke="rgb(0,0,0)" stroke-width="1" opacity="0" d="M 320.5 137 L 321 284 L 142 283.5 L 154.5 282 L 180.5 274 L 207.5 259 Q 209 261.5 214.5 260 Q 237.9 255.9 255.5 246 Q 275.5 234.5 290 217.5 Q 303.7 201.2 312 179.5 L 318 159.5 L 320.5 137 Z " /><path fill="rgb(0,0,0)" stroke="rgb(0,0,0)" stroke-width="1" opacity="0" d="M 0.5 166 L 4 187.5 L 11 207.5 Q 22.5 231.5 40.5 249 Q 55.5 262.5 74.5 272 L 96.5 280 L 118 283.5 L 0 284 L 0.5 166 Z " /><path fill="rgb(110,158,199)" stroke="rgb(110,158,199)" stroke-width="1" opacity="0.9529411764705882" d="M 127.5 29 L 135 29.5 L 127.5 30 L 127.5 29 Z " /><path fill="rgb(110,158,199)" stroke="rgb(110,158,199)" stroke-width="1" opacity="0.9529411764705882" d="M 211.5 58 L 212.5 60 L 211.5 58 Z " /><path fill="rgb(110,158,199)" stroke="rgb(110,158,199)" stroke-width="1" opacity="0.9529411764705882" d="M 47.5 59 L 46.5 61 L 47.5 59 Z " /><path fill="rgb(110,158,199)" stroke="rgb(110,158,199)" stroke-width="1" opacity="0.9529411764705882" d="M 33.5 73 L 32.5 75 L 33.5 73 Z " /><path fill="rgb(110,158,199)" stroke="rgb(110,158,199)" stroke-width="1" opacity="0.9529411764705882" d="M 179.5 88 L 180.5 90 L 179.5 88 Z " /><path fill="rgb(110,158,199)" stroke="rgb(110,158,199)" stroke-width="1" opacity="0.9529411764705882" d="M 210.5 145 L 211 147.5 L 210 147.5 L 210.5 145 Z " /><path fill="rgb(110,158,199)" stroke="rgb(110,158,199)" stroke-width="1" opacity="0.9529411764705882" d="M 210.5 161 L 211 163.5 L 210 163.5 L 210.5 161 Z " /><path fill="rgb(110,158,199)" stroke="rgb(110,158,199)" stroke-width="1" opacity="0.9529411764705882" d="M 67.5 208 L 68.5 210 L 67.5 208 Z " /><path fill="rgb(110,158,199)" stroke="rgb(110,158,199)" stroke-width="1" opacity="0.9529411764705882" d="M 188.5 212 L 184.5 217 L 188.5 212 Z " /><path fill="rgb(110,158,199)" stroke="rgb(110,158,199)" stroke-width="1" opacity="0.9529411764705882" d="M 225.5 235 L 224.5 237 L 225.5 235 Z " /><path fill="rgb(110,158,199)" stroke="rgb(110,158,199)" stroke-width="1" opacity="0.9529411764705882" d="M 46.5 248 L 47.5 250 L 46.5 248 Z " /><path fill="rgb(249,251,254)" stroke="rgb(249,251,254)" stroke-width="1" opacity="0.996078431372549" d="M 127.5 31 L 136 31.5 L 127.5 32 L 127.5 31 Z " /><path fill="rgb(249,251,254)" stroke="rgb(249,251,254)" stroke-width="1" opacity="0.996078431372549" d="M 142.5 32 L 145 32.5 L 142.5 33 L 142.5 32 Z " /><path fill="rgb(249,251,254)" stroke="rgb(249,251,254)" stroke-width="1" opacity="0.996078431372549" d="M 147.5 32 L 150 32.5 L 147.5 33 L 147.5 32 Z " /><path fill="rgb(249,251,254)" stroke="rgb(249,251,254)" stroke-width="1" opacity="0.996078431372549" d="M 107.5 33 L 112 33.5 L 107.5 34 L 107.5 33 Z " /><path fill="rgb(249,251,254)" stroke="rgb(249,251,254)" stroke-width="1" opacity="0.996078431372549" d="M 125.5 33 L 128 34.5 L 129 36.5 L 126.5 37 L 127 35.5 Q 127.8 33.3 125.5 34 L 125.5 33 Z " /><path fill="rgb(249,251,254)" stroke="rgb(249,251,254)" stroke-width="1" opacity="0.996078431372549" d="M 161.5 33 L 160.5 35 L 157 34.5 L 161.5 33 Z " /><path fill="rgb(249,251,254)" stroke="rgb(249,251,254)" stroke-width="1" opacity="0.996078431372549" d="M 101.5 34 L 106 34.5 L 101.5 35 L 101.5 34 Z " /><path fill="rgb(249,251,254)" stroke="rgb(249,251,254)" stroke-width="1" opacity="0.996078431372549" d="M 97.5 35 L 100 35.5 L 97.5 36 L 97.5 35 Z " /><path fill="rgb(249,251,254)" stroke="rgb(249,251,254)" stroke-width="1" opacity="0.996078431372549" d="M 130.5 35 L 133 36.5 L 130 37 L 130.5 35 Z " /><path fill="rgb(249,251,254)" stroke="rgb(249,251,254)" stroke-width="1" opacity="0.996078431372549" d="M 86.5 37 L 90 38.5 L 86.5 40 L 86.5 37 Z " /><path fill="rgb(249,251,254)" stroke="rgb(249,251,254)" stroke-width="1" opacity="0.996078431372549" d="M 134.5 37 L 136 37.5 L 133.5 39 L 134.5 37 Z " /><path fill="rgb(249,251,254)" stroke="rgb(249,251,254)" stroke-width="1" opacity="0.996078431372549" d="M 171.5 38 Q 173.8 37.3 173 39.5 L 171.5 38 Z " /><path fill="rgb(249,251,254)" stroke="rgb(249,251,254)" stroke-width="1" opacity="0.996078431372549" d="M 177.5 38 L 177.5 41 L 175 39.5 L 177.5 38 Z " /><path fill="rgb(249,251,254)" stroke="rgb(249,251,254)" stroke-width="1" opacity="0.996078431372549" d="M 118.5 41 L 121 41.5 Q 118.9 44.8 118.5 41 Z " /><path fill="rgb(249,251,254)" stroke="rgb(249,251,254)" stroke-width="1" opacity="0.996078431372549" d="M 143.5 45 L 142.5 47 L 143.5 45 Z " /><path fill="rgb(249,251,254)" stroke="rgb(249,251,254)" stroke-width="1" opacity="0.996078431372549" d="M 188.5 45 L 191 46.5 L 189.5 46 L 188.5 45 Z " /><path fill="rgb(249,251,254)" stroke="rgb(249,251,254)" stroke-width="1" opacity="0.996078431372549" d="M 192.5 47 L 193.5 49 L 192.5 47 Z " /><path fill="rgb(249,251,254)" stroke="rgb(249,251,254)" stroke-width="1" opacity="0.996078431372549" d="M 115.5 54 Q 118.5 55.5 115.5 57 L 115.5 54 Z " /><path fill="rgb(249,251,254)" stroke="rgb(249,251,254)" stroke-width="1" opacity="0.996078431372549" d="M 204.5 55 L 205.5 57 L 204.5 55 Z " /><path fill="rgb(249,251,254)" stroke="rgb(249,251,254)" stroke-width="1" opacity="0.996078431372549" d="M 208.5 56 L 207.5 58 L 208.5 56 Z " /><path fill="rgb(249,251,254)" stroke="rgb(249,251,254)" stroke-width="1" opacity="0.996078431372549" d="M 210.5 59 L 211.5 61 L 209.5 62 L 210 60.5 L 210.5 59 Z " /><path fill="rgb(249,251,254)" stroke="rgb(249,251,254)" stroke-width="1" opacity="0.996078431372549" d="M 47.5 61 L 44.5 65 L 47.5 61 Z " /><path fill="rgb(249,251,254)" stroke="rgb(249,251,254)" stroke-width="1" opacity="0.996078431372549" d="M 135.5 62 L 138 63.5 L 136.5 64 L 135.5 62 Z " /><path fill="rgb(249,251,254)" stroke="rgb(249,251,254)" stroke-width="1" opacity="0.996078431372549" d="M 215.5 62 L 218.5 66 L 215.5 62 Z " /><path fill="rgb(249,251,254)" stroke="rgb(249,251,254)" stroke-width="1" opacity="0.996078431372549" d="M 129.5 63 L 134 64.5 L 132.5 65 L 129.5 64 L 129.5 63 Z " /><path fill="rgb(249,251,254)" stroke="rgb(249,251,254)" stroke-width="1" opacity="0.996078431372549" d="M 42.5 64 L 41.5 66 L 42.5 64 Z " /><path fill="rgb(249,251,254)" stroke="rgb(249,251,254)" stroke-width="1" opacity="0.996078431372549" d="M 220.5 67 L 222.5 70 L 220 69.5 L 220.5 67 Z " /><path fill="rgb(249,251,254)" stroke="rgb(249,251,254)" stroke-width="1" opacity="0.996078431372549" d="M 122.5 68 L 124 70.5 L 122.5 70 L 120 69.5 L 122.5 68 Z " /><path fill="rgb(249,251,254)" stroke="rgb(249,251,254)" stroke-width="1" opacity="0.996078431372549" d="M 124.5 68 L 135 68.5 L 124.5 69 L 124.5 68 Z " /><path fill="rgb(249,251,254)" stroke="rgb(249,251,254)" stroke-width="1" opacity="0.996078431372549" d="M 37.5 69 Q 40.5 70.5 37.5 72 Q 34.5 70.5 37.5 69 Z " /><path fill="rgb(249,251,254)" stroke="rgb(249,251,254)" stroke-width="1" opacity="0.996078431372549" d="M 116.5 69 L 119 69.5 L 116.5 70 L 116.5 69 Z " /><path fill="rgb(249,251,254)" stroke="rgb(249,251,254)" stroke-width="1" opacity="0.996078431372549" d="M 138.5 69 L 141 69.5 L 138.5 70 L 138.5 69 Z " /><path fill="rgb(249,251,254)" stroke="rgb(249,251,254)" stroke-width="1" opacity="0.996078431372549" d="M 142.5 69 L 147 70.5 L 145.5 71 L 142.5 70 L 142.5 69 Z " /><path fill="rgb(249,251,254)" stroke="rgb(249,251,254)" stroke-width="1" opacity="0.996078431372549" d="M 148.5 70 L 151 71.5 L 149.5 72 L 148.5 70 Z " /><path fill="rgb(249,251,254)" stroke="rgb(249,251,254)" stroke-width="1" opacity="0.996078431372549" d="M 101.5 73 L 104 73.5 L 101.5 74 L 101.5 73 Z " /><path fill="rgb(249,251,254)" stroke="rgb(249,251,254)" stroke-width="1" opacity="0.996078431372549" d="M 157.5 73 L 161 75.5 L 158.5 74 L 157.5 73 Z " /><path fill="rgb(249,251,254)" stroke="rgb(249,251,254)" stroke-width="1" opacity="0.996078431372549" d="M 164.5 76 L 165.5 78 L 164.5 76 Z " /><path fill="rgb(249,251,254)" stroke="rgb(249,251,254)" stroke-width="1" opacity="0.996078431372549" d="M 30.5 77 L 33 77.5 Q 30.9 80.8 30.5 77 Z " /><path fill="rgb(249,251,254)" stroke="rgb(249,251,254)" stroke-width="1" opacity="0.996078431372549" d="M 85.5 81 L 83.5 84 L 85.5 81 Z " /><path fill="rgb(249,251,254)" stroke="rgb(249,251,254)" stroke-width="1" opacity="0.996078431372549" d="M 175.5 83 L 176.5 85 L 174 84.5 L 175.5 83 Z " /><path fill="rgb(249,251,254)" stroke="rgb(249,251,254)" stroke-width="1" opacity="0.996078431372549" d="M 78.5 84 Q 81.5 85.5 78.5 87 L 78.5 84 Z " /><path fill="rgb(249,251,254)" stroke="rgb(249,251,254)" stroke-width="1" opacity="0.996078431372549" d="M 75.5 89 Q 78.5 90.5 75.5 92 L 75.5 89 Z " /><path fill="rgb(249,251,254)" stroke="rgb(249,251,254)" stroke-width="1" opacity="0.996078431372549" d="M 184.5 92 L 186.5 92 L 189 94.5 L 188.5 97 L 184.5 92 Z " /><path fill="rgb(249,251,254)" stroke="rgb(249,251,254)" stroke-width="1" opacity="0.996078431372549" d="M 236.5 92 L 239 93.5 L 238.5 95 L 238 93 L 236.5 92 Z " /><path fill="rgb(249,251,254)" stroke="rgb(249,251,254)" stroke-width="1" opacity="0.996078431372549" d="M 67.5 97 L 70 97.5 Q 67.9 100.8 67.5 97 Z " /><path fill="rgb(249,251,254)" stroke="rgb(249,251,254)" stroke-width="1" opacity="0.996078431372549" d="M 63.5 102 L 64.5 104 L 63 103.5 L 62 105.5 L 62.5 107 L 60 106.5 L 63.5 102 Z " /><path fill="rgb(249,251,254)" stroke="rgb(249,251,254)" stroke-width="1" opacity="0.996078431372549" d="M 241.5 102 Q 243.8 101.3 243 103.5 L 245 103.5 L 243.5 105 L 241.5 102 Z " /><path fill="rgb(249,251,254)" stroke="rgb(249,251,254)" stroke-width="1" opacity="0.996078431372549" d="M 245.5 105 L 244.5 107 L 245.5 105 Z " /><path fill="rgb(249,251,254)" stroke="rgb(249,251,254)" stroke-width="1" opacity="0.996078431372549" d="M 200.5 106 L 199.5 108 L 200.5 106 Z " /><path fill="rgb(249,251,254)" stroke="rgb(249,251,254)" stroke-width="1" opacity="0.996078431372549" d="M 244.5 108 L 245.5 110 L 244.5 108 Z " /><path fill="rgb(249,251,254)" stroke="rgb(249,251,254)" stroke-width="1" opacity="0.996078431372549" d="M 11.5 111 L 12.5 113 L 11.5 111 Z " /><path fill="rgb(249,251,254)" stroke="rgb(249,251,254)" stroke-width="1" opacity="0.996078431372549" d="M 202.5 113 L 204 115.5 L 203 115.5 L 202.5 113 Z " /><path fill="rgb(249,251,254)" stroke="rgb(249,251,254)" stroke-width="1" opacity="0.996078431372549" d="M 247.5 114 L 248 117.5 L 247 117.5 L 247.5 114 Z " /><path fill="rgb(249,251,254)" stroke="rgb(249,251,254)" stroke-width="1" opacity="0.996078431372549" d="M 55.5 115 L 56.5 117 L 55 116.5 L 56 118.5 L 54 117.5 L 55.5 115 Z " /><path fill="rgb(249,251,254)" stroke="rgb(249,251,254)" stroke-width="1" opacity="0.996078431372549" d="M 205.5 120 L 208 123.5 L 206 122.5 L 205.5 120 Z " /><path fill="rgb(249,251,254)" stroke="rgb(249,251,254)" stroke-width="1" opacity="0.996078431372549" d="M 52.5 121 L 54 123.5 L 52 122.5 L 52.5 121 Z " /><path fill="rgb(249,251,254)" stroke="rgb(249,251,254)" stroke-width="1" opacity="0.996078431372549" d="M 249.5 122 L 250.5 125 L 252 124.5 L 250.5 127 L 249.5 122 Z " /><path fill="rgb(249,251,254)" stroke="rgb(249,251,254)" stroke-width="1" opacity="0.996078431372549" d="M 7.5 124 L 9 127.5 L 8 127.5 L 7.5 124 Z " /><path fill="rgb(249,251,254)" stroke="rgb(249,251,254)" stroke-width="1" opacity="0.996078431372549" d="M 51.5 124 L 51 125.5 L 50.5 127 L 50 125.5 L 51.5 124 Z " /><path fill="rgb(249,251,254)" stroke="rgb(249,251,254)" stroke-width="1" opacity="0.996078431372549" d="M 207.5 125 L 210 129.5 L 207 129.5 L 208 126.5 L 207.5 125 Z " /><path fill="rgb(249,251,254)" stroke="rgb(249,251,254)" stroke-width="1" opacity="0.996078431372549" d="M 209.5 131 L 210.5 133 L 208 132.5 L 209.5 131 Z " /><path fill="rgb(249,251,254)" stroke="rgb(249,251,254)" stroke-width="1" opacity="0.996078431372549" d="M 251.5 131 L 252 133.5 L 251 133.5 L 251.5 131 Z " /><path fill="rgb(249,251,254)" stroke="rgb(249,251,254)" stroke-width="1" opacity="0.996078431372549" d="M 7.5 132 L 8 134.5 L 7 134.5 L 7.5 132 Z " /><path fill="rgb(249,251,254)" stroke="rgb(249,251,254)" stroke-width="1" opacity="0.996078431372549" d="M 6.5 137 L 7 139.5 L 6 139.5 L 6.5 137 Z " /><path fill="rgb(249,251,254)" stroke="rgb(249,251,254)" stroke-width="1" opacity="0.996078431372549" d="M 4.5 142 L 5 145.5 L 4 145.5 L 4.5 142 Z " /><path fill="rgb(249,251,254)" stroke="rgb(249,251,254)" stroke-width="1" opacity="0.996078431372549" d="M 212.5 145 L 213 148.5 L 212 148.5 L 212.5 145 Z " /><path fill="rgb(249,251,254)" stroke="rgb(249,251,254)" stroke-width="1" opacity="0.996078431372549" d="M 5.5 148 L 6 150.5 L 5 150.5 L 5.5 148 Z " /><path fill="rgb(249,251,254)" stroke="rgb(249,251,254)" stroke-width="1" opacity="0.996078431372549" d="M 46.5 155 L 47 158.5 L 45 157.5 L 46.5 155 Z " /><path fill="rgb(249,251,254)" stroke="rgb(249,251,254)" stroke-width="1" opacity="0.996078431372549" d="M 46.5 163 L 49 166.5 L 47 166.5 L 46.5 168 L 46.5 163 Z " /><path fill="rgb(249,251,254)" stroke="rgb(249,251,254)" stroke-width="1" opacity="0.996078431372549" d="M 212.5 163 L 213 167.5 L 212 167.5 L 212.5 163 Z " /><path fill="rgb(249,251,254)" stroke="rgb(249,251,254)" stroke-width="1" opacity="0.996078431372549" d="M 6.5 164 L 7 168.5 L 6 168.5 L 6.5 164 Z " /><path fill="rgb(249,251,254)" stroke="rgb(249,251,254)" stroke-width="1" opacity="0.996078431372549" d="M 252.5 166 L 253 168.5 L 252 168.5 L 252.5 166 Z " /><path fill="rgb(249,251,254)" stroke="rgb(249,251,254)" stroke-width="1" opacity="0.996078431372549" d="M 7.5 172 L 8 175.5 L 7 175.5 L 7.5 172 Z " /><path fill="rgb(249,251,254)" stroke="rgb(249,251,254)" stroke-width="1" opacity="0.996078431372549" d="M 47.5 172 L 49 175.5 L 48 175.5 L 47.5 172 Z " /><path fill="rgb(249,251,254)" stroke="rgb(249,251,254)" stroke-width="1" opacity="0.996078431372549" d="M 209.5 179 L 210 181.5 L 208 182.5 L 209.5 179 Z " /><path fill="rgb(249,251,254)" stroke="rgb(249,251,254)" stroke-width="1" opacity="0.996078431372549" d="M 8.5 180 L 10 184.5 L 9 184.5 L 8.5 180 Z " /><path fill="rgb(249,251,254)" stroke="rgb(249,251,254)" stroke-width="1" opacity="0.996078431372549" d="M 250.5 180 L 251 181.5 L 249.5 185 L 249 182.5 L 250.5 180 Z " /><path fill="rgb(249,251,254)" stroke="rgb(249,251,254)" stroke-width="1" opacity="0.996078431372549" d="M 52.5 188 L 53.5 190 L 52.5 188 Z " /><path fill="rgb(249,251,254)" stroke="rgb(249,251,254)" stroke-width="1" opacity="0.996078431372549" d="M 204.5 188 L 206 190.5 L 204.5 193 L 203 190.5 L 205 190.5 L 204.5 188 Z " /><path fill="rgb(249,251,254)" stroke="rgb(249,251,254)" stroke-width="1" opacity="0.996078431372549" d="M 247.5 192 L 248.5 194 L 247.5 192 Z " /><path fill="rgb(249,251,254)" stroke="rgb(249,251,254)" stroke-width="1" opacity="0.996078431372549" d="M 12.5 193 L 13 195.5 L 12 195.5 L 12.5 193 Z " /><path fill="rgb(249,251,254)" stroke="rgb(249,251,254)" stroke-width="1" opacity="0.996078431372549" d="M 200.5 196 L 203 196.5 L 201.5 199 L 200.5 196 Z " /><path fill="rgb(249,251,254)" stroke="rgb(249,251,254)" stroke-width="1" opacity="0.996078431372549" d="M 198.5 202 L 198 203.5 L 197.5 205 L 197 203.5 L 198.5 202 Z " /><path fill="rgb(249,251,254)" stroke="rgb(249,251,254)" stroke-width="1" opacity="0.996078431372549" d="M 16.5 205 L 19 208.5 L 16 208.5 L 17 206.5 L 15 206.5 L 16.5 205 Z " /><path fill="rgb(249,251,254)" stroke="rgb(249,251,254)" stroke-width="1" opacity="0.996078431372549" d="M 65.5 206 L 65.5 209 Q 62.5 207.5 65.5 206 Z " /><path fill="rgb(249,251,254)" stroke="rgb(249,251,254)" stroke-width="1" opacity="0.996078431372549" d="M 241.5 207 L 242.5 209 L 241.5 207 Z " /><path fill="rgb(249,251,254)" stroke="rgb(249,251,254)" stroke-width="1" opacity="0.996078431372549" d="M 69.5 211 L 74 215.5 L 72.5 217 L 70 215.5 L 72 214.5 L 68 212.5 L 69.5 211 Z " /><path fill="rgb(249,251,254)" stroke="rgb(249,251,254)" stroke-width="1" opacity="0.996078431372549" d="M 187.5 216 L 186.5 218 L 187.5 216 Z " /><path fill="rgb(249,251,254)" stroke="rgb(249,251,254)" stroke-width="1" opacity="0.996078431372549" d="M 181.5 219 L 181.5 222 Q 178.5 220.5 181.5 219 Z " /><path fill="rgb(249,251,254)" stroke="rgb(249,251,254)" stroke-width="1" opacity="0.996078431372549" d="M 25.5 221 L 26.5 223 L 25.5 221 Z " /><path fill="rgb(249,251,254)" stroke="rgb(249,251,254)" stroke-width="1" opacity="0.996078431372549" d="M 78.5 221 L 81 221.5 L 80 222.5 L 81.5 225 L 78.5 221 Z " /><path fill="rgb(249,251,254)" stroke="rgb(249,251,254)" stroke-width="1" opacity="0.996078431372549" d="M 84.5 225 Q 86.3 228.1 88 226.5 L 87 229 L 84.5 230 L 86 227.5 L 84.5 225 Z " /><path fill="rgb(249,251,254)" stroke="rgb(249,251,254)" stroke-width="1" opacity="0.996078431372549" d="M 173.5 225 L 174.5 227 L 173.5 225 Z " /><path fill="rgb(249,251,254)" stroke="rgb(249,251,254)" stroke-width="1" opacity="0.996078431372549" d="M 228.5 225 L 231 225.5 L 230 227.5 L 230.5 229 L 228.5 225 Z " /><path fill="rgb(249,251,254)" stroke="rgb(249,251,254)" stroke-width="1" opacity="0.996078431372549" d="M 29.5 227 L 30.5 229 L 29.5 227 Z " /><path fill="rgb(249,251,254)" stroke="rgb(249,251,254)" stroke-width="1" opacity="0.996078431372549" d="M 166.5 229 Q 170 231 165.5 233 L 166.5 229 Z " /><path fill="rgb(249,251,254)" stroke="rgb(249,251,254)" stroke-width="1" opacity="0.996078431372549" d="M 224.5 233 L 224 234.5 L 220.5 239 L 222 236.5 L 224.5 233 Z " /><path fill="rgb(249,251,254)" stroke="rgb(249,251,254)" stroke-width="1" opacity="0.996078431372549" d="M 104.5 234 L 103.5 236 L 102 235.5 L 104.5 234 Z " /><path fill="rgb(249,251,254)" stroke="rgb(249,251,254)" stroke-width="1" opacity="0.996078431372549" d="M 158.5 234 L 160 234.5 L 154.5 236 L 154.5 235 L 158.5 234 Z " /><path fill="rgb(249,251,254)" stroke="rgb(249,251,254)" stroke-width="1" opacity="0.996078431372549" d="M 108.5 237 L 115 238.5 L 111.5 239 L 108.5 238 L 108.5 237 Z " /><path fill="rgb(249,251,254)" stroke="rgb(249,251,254)" stroke-width="1" opacity="0.996078431372549" d="M 127.5 238 L 134 238.5 L 127.5 239 L 127.5 238 Z " /><path fill="rgb(249,251,254)" stroke="rgb(249,251,254)" stroke-width="1" opacity="0.996078431372549" d="M 144.5 238 L 147 238.5 L 143.5 240 L 144.5 238 Z " /><path fill="rgb(249,251,254)" stroke="rgb(249,251,254)" stroke-width="1" opacity="0.996078431372549" d="M 39.5 239 L 40.5 241 L 39.5 239 Z " /><path fill="rgb(249,251,254)" stroke="rgb(249,251,254)" stroke-width="1" opacity="0.996078431372549" d="M 116.5 239 Q 120.9 237.5 120 240.5 L 118.5 240 Q 115.5 240.5 116.5 239 Z " /><path fill="rgb(249,251,254)" stroke="rgb(249,251,254)" stroke-width="1" opacity="0.996078431372549" d="M 220.5 240 L 219.5 242 L 220.5 240 Z " /><path fill="rgb(249,251,254)" stroke="rgb(249,251,254)" stroke-width="1" opacity="0.996078431372549" d="M 42.5 241 L 43 243 Q 45.7 241.9 45 244.5 L 43 245.5 Q 45.3 244.3 42.5 243 L 41 243.5 L 42.5 241 Z " /><path fill="rgb(249,251,254)" stroke="rgb(249,251,254)" stroke-width="1" opacity="0.996078431372549" d="M 213.5 245 L 214.5 247 L 212 246.5 L 213.5 245 Z " /><path fill="rgb(249,251,254)" stroke="rgb(249,251,254)" stroke-width="1" opacity="0.996078431372549" d="M 50.5 249 L 53.5 253 Q 51.8 249.9 50 251.5 L 50.5 249 Z " /><path fill="rgb(249,251,254)" stroke="rgb(249,251,254)" stroke-width="1" opacity="0.996078431372549" d="M 198.5 256 L 200 258.5 L 198 257.5 L 198.5 256 Z " /><path fill="rgb(249,251,254)" stroke="rgb(249,251,254)" stroke-width="1" opacity="0.996078431372549" d="M 196.5 258 L 196.5 261 Q 193.5 259.5 196.5 258 Z " /><path fill="rgb(249,251,254)" stroke="rgb(249,251,254)" stroke-width="1" opacity="0.996078431372549" d="M 175.5 268 L 177 268.5 L 174.5 270 L 175.5 268 Z " /><path fill="rgb(249,251,254)" stroke="rgb(249,251,254)" stroke-width="1" opacity="0.996078431372549" d="M 83.5 269 L 82.5 271 L 83.5 269 Z " /><path fill="rgb(249,251,254)" stroke="rgb(249,251,254)" stroke-width="1" opacity="0.996078431372549" d="M 165.5 272 L 169 273.5 L 167.5 273 Q 164.5 273.5 165.5 272 Z " /><path fill="rgb(249,251,254)" stroke="rgb(249,251,254)" stroke-width="1" opacity="0.996078431372549" d="M 96.5 273 L 101 274.5 L 98.5 275 L 96.5 273 Z " /><path fill="rgb(249,251,254)" stroke="rgb(249,251,254)" stroke-width="1" opacity="0.996078431372549" d="M 102.5 275 L 105 275.5 L 102.5 276 L 102.5 275 Z " /><path fill="rgb(249,251,254)" stroke="rgb(249,251,254)" stroke-width="1" opacity="0.996078431372549" d="M 153.5 275 L 157 275.5 L 153.5 276 L 153.5 275 Z " /><path fill="rgb(249,251,254)" stroke="rgb(249,251,254)" stroke-width="1" opacity="0.996078431372549" d="M 108.5 276 L 111 276.5 L 108.5 277 L 108.5 276 Z " /><path fill="rgb(249,251,254)" stroke="rgb(249,251,254)" stroke-width="1" opacity="0.996078431372549" d="M 135.5 277 L 138 277.5 L 133.5 279 L 133.5 278 L 135.5 277 Z " /><path fill="rgb(249,251,254)" stroke="rgb(249,251,254)" stroke-width="1" opacity="0.996078431372549" d="M 140.5 277 L 144 277.5 L 140.5 278 L 140.5 277 Z " /><path fill="rgb(249,251,254)" stroke="rgb(249,251,254)" stroke-width="1" opacity="0.996078431372549" d="M 137.5 279 L 140 279.5 L 137.5 280 L 137.5 279 Z " /><path fill="rgb(9,127,204)" stroke="rgb(9,127,204)" stroke-width="1" opacity="0.996078431372549" d="M 185.5 4 L 197 4.5 L 185.5 5 L 185.5 4 Z " /><path fill="rgb(9,127,204)" stroke="rgb(9,127,204)" stroke-width="1" opacity="0.996078431372549" d="M 174.5 5 L 177.5 6 L 204.5 6 Q 206.2 8.8 212.5 7 L 214.5 6 L 214.5 7 L 213 7.5 L 217.5 8 L 219.5 7 L 219.5 8 L 218 8.5 L 221.5 9 L 223.5 8 L 223.5 9 L 222 9.5 L 225.5 10 L 227 9.5 L 226.5 11 L 229.5 10 L 229.5 12 L 232.5 11 L 232.5 13 L 235.5 12 L 235.5 14 L 239.5 15 L 241 14.5 L 240.5 16 L 242.5 15 L 242.5 17 L 251.5 21 L 253 20.5 L 252.5 22 L 254.5 21 L 254.5 23 L 265.5 30 L 267 29.5 Q 264.3 31.2 268.5 33 L 270.5 34 Q 271.8 31.7 273 34.5 Q 270.3 36.2 274.5 38 L 285 47.5 L 286.5 50 Q 288.3 47.3 290 51.5 L 290 53.5 L 291.5 56 L 293 55.5 L 293 57.5 L 293.5 59 L 295 58.5 L 295 60.5 L 295.5 62 L 297 61.5 L 297 63.5 L 297.5 65 L 299 64.5 L 298 66.5 L 300 66.5 L 300 68.5 L 300.5 70 L 302 69.5 L 301 71.5 L 303 71.5 L 302 73.5 L 304 73.5 L 303 75.5 L 305 75.5 L 304 77.5 L 305.5 81 L 307 80.5 L 306 82.5 L 308 82.5 L 307 85.5 L 309 85.5 L 308 88.5 L 309.5 91 L 311 90.5 L 310 94.5 L 311.5 98 L 313 97.5 L 312 102.5 L 314.5 115 L 315.5 112 L 316 114.5 L 315 115.5 L 315 145.5 L 316 148.5 L 315 148.5 L 314.5 146 L 314 152.5 L 315 154.5 L 314 154.5 L 313.5 153 L 313 157.5 L 314 159.5 L 313 159.5 L 312.5 158 L 312 162.5 L 312.5 164 L 311 163.5 L 312 167.5 L 311 167.5 L 310.5 166 L 310 169.5 L 310.5 171 L 309 170.5 L 310 173.5 L 308 173.5 L 309 176.5 L 307 176.5 L 306 180.5 L 306.5 182 L 305 181.5 L 303 187.5 L 303.5 189 L 302 188.5 L 303 190.5 L 301 190.5 L 302 192.5 L 299 193.5 L 298 196.5 L 298.5 198 L 297 197.5 L 298 199.5 L 296 199.5 L 295 201.5 L 295.5 203 L 294 202.5 L 293 204.5 L 293.5 206 Q 292.3 203.8 291 206.5 L 290 208.5 L 290.5 210 Q 289.2 207.8 288 210.5 L 287 212.5 Q 289.3 213.8 286.5 215 Q 285.3 212.8 284 215.5 L 274.5 226 L 272 227.5 Q 274.3 228.8 271.5 230 Q 270 227.5 268.5 231 L 266 232.5 L 266.5 234 L 264.5 234 L 260 236.5 Q 262.3 237.8 259.5 239 L 257.5 238 L 257.5 240 L 255.5 240 L 254 240.5 L 254.5 242 L 252.5 241 L 252.5 243 L 250.5 242 L 250.5 244 L 248.5 243 L 248.5 245 L 246.5 244 L 246.5 246 L 244.5 245 L 244.5 247 L 242.5 246 L 242.5 248 L 239.5 247 L 239.5 249 L 237.5 248 L 237.5 250 L 234.5 249 L 234.5 251 L 231.5 250 L 231.5 252 L 227.5 251 L 224 252.5 L 224.5 254 L 219.5 253 L 219.5 254 L 221 254.5 L 219.5 255 Q 218.3 252.7 213.5 254 L 213.5 255 L 215 255.5 L 213.5 256 Q 212 253.5 206.5 255 L 205 255.5 L 227 234.5 Q 243 215.5 251 188.5 L 255 168.5 L 255 144.5 L 256 143.5 L 255.5 142 Q 258.5 142.5 257 135.5 L 256 135.5 L 255.5 138 L 255 133.5 L 257 133.5 L 256 131.5 L 255.5 119 L 254.5 122 L 254 119.5 Q 256.5 118 255 112.5 L 254 112.5 L 253.5 114 L 253 112.5 L 254 107.5 L 252 107.5 L 253 103.5 L 251 103.5 L 252 99.5 L 250 99.5 L 251 96.5 L 249 96.5 L 250 92.5 L 248.5 90 L 247 90.5 L 248 87.5 L 246 87.5 L 247 84.5 L 245.5 82 L 244 82.5 L 245 80.5 L 243 80.5 L 244 78.5 L 240.5 72 L 239 72.5 L 240 70.5 L 238 70.5 L 239 68.5 L 236.5 65 L 235 65.5 L 236 63.5 L 234 63.5 L 234 61.5 L 233.5 60 L 232 60.5 L 232 58.5 L 230.5 56 L 229 56.5 L 229 54.5 L 227.5 52 Q 226.3 54.3 225 51.5 L 226 50.5 L 223 47.5 L 219.5 43 Q 218.3 45.3 217 42.5 Q 219.3 41.3 216.5 40 L 215 40.5 Q 217.8 38.8 213.5 37 L 209.5 34 Q 208.3 36.3 207 33.5 L 207.5 32 L 204.5 30 L 203 30.5 L 203.5 29 L 201.5 28 L 200 28.5 Q 202.3 27.2 199.5 26 L 197.5 27 L 197.5 25 L 195.5 24 L 194 24.5 L 194.5 23 L 192.5 22 L 191 22.5 L 191.5 21 L 189.5 22 L 189.5 20 L 187.5 21 L 187.5 19 L 185.5 20 L 185.5 18 L 183.5 19 L 183.5 17 L 181.5 18 L 181.5 16 L 179.5 17 L 179.5 15 L 175.5 14 L 174 14.5 L 174.5 13 L 166.5 11 L 165 11.5 L 165.5 10 L 162.5 11 L 162 9 L 165 8.5 L 164.5 7 L 169.5 8 L 169.5 7 L 168 6.5 L 169.5 6 Q 171 8.5 176.5 7 L 176.5 6 Q 173.5 6.5 174.5 5 Z " /><path fill="rgb(9,127,204)" stroke="rgb(9,127,204)" stroke-width="1" opacity="0.996078431372549" d="M 125.5 39 Q 138.1 36.9 141 44.5 L 143 52.5 Q 141.8 58.3 137.5 61 Q 133.9 63.9 126.5 63 L 119 57.5 Q 116 54.5 117 47.5 L 121.5 41 L 125.5 39 Z " /><path fill="rgb(9,127,204)" stroke="rgb(9,127,204)" stroke-width="1" opacity="0.996078431372549" d="M 316.5 123 L 317 136.5 L 316 136.5 L 316.5 123 Z " /></svg>